<svg width="364" height="200" viewBox="0 0 364 200" fill="none" xmlns="http://www.w3.org/2000/svg">
<g clip-path="url(#clip0_1642_7847)">
<rect width="364" height="200" rx="12" fill="#F4F8FA"/>
<g style="mix-blend-mode:overlay">
<rect x="-9.00098" y="-21.3018" width="391" height="227" fill="url(#paint0_linear_1642_7847)"/>
</g>
<rect x="-9.00098" y="-21.3018" width="391" height="227" fill="#F4F8FA"/>
<path opacity="0.9" d="M-8.62567 6.5385L390.993 199.687L218.321 291.457L-90.4521 169.24L-8.62567 6.5385Z" fill="#DAE6EF"/>
<g opacity="0.08" filter="url(#filter0_b_1642_7847)">
<circle cx="281.292" cy="42.2925" r="25.2925" fill="#061238"/>
</g>
<circle cx="281.293" cy="42.5454" r="21.5454" fill="white"/>
<path d="M287.712 40.7122C287.87 40.8703 287.868 41.1274 287.707 41.2828L286.833 42.127C286.676 42.2785 286.426 42.2764 286.272 42.1221L283 38.85L283 50.6C283 50.8209 282.821 51 282.6 51L281.4 51C281.179 51 281 50.8209 281 50.6L281 38.85L277.728 42.1221C277.574 42.2764 277.324 42.2785 277.167 42.127L276.293 41.2828C276.132 41.1274 276.13 40.8703 276.288 40.7122L281.717 35.2828C281.873 35.1266 282.127 35.1266 282.283 35.2828L287.712 40.7122Z" fill="#061238"/>
<path d="M170.322 183.586C175.167 186.009 178.581 185.513 179.683 184.963C181.665 184.601 184.73 182.426 186.015 181.383C199.78 165.416 228.357 132.379 232.542 127.974C236.727 123.569 239.241 116.778 239.975 113.933L243.829 92.1834C244.564 88.8797 245.316 81.7217 242.453 79.5192C239.59 77.3168 229.513 72.9118 224.833 70.9847C200.514 62.3584 148.573 44.2798 135.358 40.9761C122.143 37.6724 110.58 42.3527 106.45 45.1058C88.4636 53.6403 51.2786 71.7556 46.4331 75.9403C45.4006 76.832 44.5831 77.7979 43.9412 78.789C40.346 84.3397 43.6447 91.2683 46.8318 97.0631L54.1418 110.354C55.7936 112.648 60.3087 118.118 65.1541 121.642C71.2109 126.047 164.265 180.558 170.322 183.586Z" fill="#061238"/>
<path d="M170.322 183.586C175.167 186.009 178.581 185.513 179.683 184.963C181.665 184.601 184.73 182.426 186.015 181.383C199.78 165.416 228.357 132.379 232.542 127.974C236.727 123.569 239.241 116.778 239.975 113.933L243.83 92.1834C244.564 88.8797 245.316 81.7217 242.453 79.5192C239.59 77.3168 229.513 72.9118 224.833 70.9847C200.514 62.3584 148.573 44.2798 135.358 40.9761C122.143 37.6724 110.58 42.3527 106.45 45.1058C88.4636 53.6403 51.2786 71.7556 46.4331 75.9403C45.4006 76.832 44.5831 77.7979 43.9412 78.789C40.346 84.3397 43.6447 91.2683 46.8318 97.0631L54.1418 110.354C55.7936 112.648 60.3087 118.118 65.1541 121.642C71.2109 126.047 164.265 180.558 170.322 183.586Z" fill="#061238"/>
<path opacity="0.14" d="M170.047 158.258C144.718 149.448 75.0687 109.272 43.5 90L48 99.5L54 110L58.5 116L80 130L171.047 184L176 185.5C172.917 183.298 170.689 166.609 170.047 158.258Z" fill="#6F8CA9"/>
<path opacity="0.7" d="M170.322 183.586C175.167 186.009 178.581 185.513 179.683 184.963C181.665 184.601 184.73 182.426 186.015 181.383C199.78 165.416 228.357 132.379 232.542 127.974C236.727 123.569 239.241 116.778 239.975 113.933L243.83 92.1834C244.564 88.8797 245.316 81.7217 242.453 79.5192C239.59 77.3168 227.586 72.9118 222.906 70.9847C198.587 62.3584 149.674 45.381 135.358 40.9761C122.143 37.6724 110.58 42.3527 106.45 45.1058C88.4636 53.6403 51.2786 71.7556 46.4331 75.9403C45.4006 76.832 44.5831 77.7979 43.9412 78.789C40.346 84.3397 43.6447 91.2683 46.8318 97.0631L54.1418 110.354C55.7936 112.648 60.3087 118.118 65.1541 121.642C71.2109 126.047 164.265 180.558 170.322 183.586Z" fill="#546988"/>
<ellipse cx="97.4335" cy="123.65" rx="1.26657" ry="1.93883" transform="rotate(-64.8412 97.4335 123.65)" fill="#546988"/>
<path opacity="0.9" d="M77.2681 70.4339C81.2605 68.216 119.126 50.7339 138.188 42.1665C138.319 42.1074 138.462 42.102 138.599 42.1468L183.812 56.9438L228.577 72.5976C228.619 72.6124 228.623 72.6705 228.584 72.6915C225.542 74.3018 222.69 76.236 220.065 78.4618C205.597 90.7289 181.371 111.097 175.553 115.309C169.202 119.909 159.964 119.444 156.071 118.627C156.027 118.617 155.987 118.604 155.947 118.584C130.413 106.369 78.5868 81.555 75.0656 79.7944C70.6607 77.592 72.3125 73.187 77.2681 70.4339Z" fill="#6F8CA9" stroke="#061238" stroke-width="0.5787"/>
<path opacity="0.3" d="M143.893 125.221C138.174 130.668 137.844 138.703 138.646 143.183C138.735 143.683 138.2 144.099 137.753 143.86L123.235 136.1C123.068 136.011 122.955 135.844 122.935 135.657C121.615 123.224 131.773 113.48 137.301 109.966C137.465 109.862 137.667 109.853 137.843 109.935L152.366 116.677C152.687 116.827 152.771 117.206 152.51 117.446C151.43 118.438 148.607 120.731 143.893 125.221Z" fill="#6F8CA9" stroke="#061238" stroke-width="0.5787"/>
<path opacity="0.2" d="M109.798 132.396C106.977 132.138 108.996 134.838 110.4 136.265C110.431 136.296 110.463 136.322 110.5 136.346C116.248 139.946 128.278 147.21 130.863 147.73C132.33 148.025 132.69 147.29 132.589 146.34C132.428 144.818 131.152 143.716 129.844 142.922C123.223 138.902 112.37 132.632 109.798 132.396Z" fill="#061238"/>
<path opacity="0.4" d="M109.754 132.653C107.363 132.436 109.067 134.704 110.259 135.91C110.29 135.942 110.322 135.968 110.36 135.991C115.245 139.031 125.455 145.154 127.649 145.593C128.699 145.803 129.081 145.396 129.125 144.784C129.234 143.256 127.792 142.142 126.48 141.352C120.833 137.956 111.901 132.848 109.754 132.653Z" fill="#061238"/>
<path opacity="0.6" d="M114.144 134.509V137.635" stroke="#061238" stroke-width="0.93865" stroke-linecap="round"/>
<path opacity="0.6" d="M117.716 136.295V139.421" stroke="#061238" stroke-width="0.93865" stroke-linecap="round"/>
<path opacity="0.6" d="M121.289 138.975V142.1" stroke="#061238" stroke-width="0.93865" stroke-linecap="round"/>
<path opacity="0.6" d="M124.861 140.761V143.887" stroke="#061238" stroke-width="0.93865" stroke-linecap="round"/>
<path opacity="0.6" d="M143.617 145.868C143.176 145.868 142.883 146.419 142.791 146.694L163.164 156.055L162.613 154.403C156.465 151.558 144.057 145.868 143.617 145.868Z" fill="#061238"/>
<path opacity="0.5" d="M176.379 179.181C177.227 183.931 181.115 183.502 183.906 182.467C185.338 181.935 186.509 180.906 187.503 179.746L201 164L221.597 140.325L230.352 130.392L231.284 129.402C236.206 124.178 239.454 117.601 240.61 110.516L242 102C243 96 245.041 87.9988 244.38 83.3736C243.719 78.7484 237.864 83.6489 235.02 86.6773C218.868 102.186 185.134 134.746 179.407 140.913C173.681 147.08 172.616 155.046 172.8 158.258C173.534 162.662 175.278 173.014 176.379 179.181Z" fill="#546988"/>
<path opacity="0.4" d="M185.464 161.286L236.396 106.775C238.207 104.603 239.519 102.044 240.01 99.2591C240.309 97.5686 240.567 95.7714 240.665 94.2589C240.79 92.3278 240.998 88.983 239.122 88.505C237.518 88.0959 236.627 89.4661 235.447 90.6281C217.218 108.585 183.466 141.997 181.334 144.768C178.581 148.347 178.581 155.229 179.958 160.185C181.059 164.149 184.088 162.571 185.464 161.286Z" fill="#061238" stroke="#6F8CA9" stroke-width="0.5787"/>
<path d="M172.245 106.58L163.487 107.964L169.488 101.849L172.245 106.58Z" fill="#061238"/>
<path fill-rule="evenodd" clip-rule="evenodd" d="M164.631 105.193C166.793 103.707 166.958 101.36 165 99.9529C163.042 98.5453 159.702 98.6094 157.54 100.096C155.377 101.583 155.212 103.929 157.17 105.336C159.128 106.744 162.468 106.68 164.631 105.193ZM166.724 106.698C170.163 104.334 170.426 100.602 167.312 98.3637C164.198 96.1251 158.885 96.227 155.446 98.5912C152.007 100.955 151.744 104.687 154.859 106.925C157.973 109.164 163.285 109.062 166.724 106.698Z" fill="#061238"/>
<path fill-rule="evenodd" clip-rule="evenodd" d="M156.043 105.222C154.539 104.73 153.678 103.67 153.308 102.93L155.833 102.237C156.101 102.772 156.645 103.328 157.286 103.538C157.565 103.629 157.878 103.662 158.276 103.59C158.699 103.512 159.302 103.298 160.083 102.781C162.079 101.458 163.985 100.944 165.658 100.988C167.293 101.03 168.488 101.601 169.114 102.157L166.978 103.347C166.744 103.139 166.2 102.86 165.413 102.84C164.664 102.82 163.465 103.03 161.868 104.088C160.852 104.761 159.836 105.195 158.821 105.38C157.781 105.571 156.837 105.482 156.043 105.222Z" fill="#061238"/>
<g filter="url(#filter1_b_1642_7847)">
<ellipse cx="4" cy="4.00007" rx="4" ry="4.00007" transform="matrix(0.866025 0.5 0.5 -0.866025 206.125 77.4287)" fill="white" fill-opacity="0.21"/>
</g>
<path d="M257.5 53.5L211.676 76.501" stroke="url(#paint1_linear_1642_7847)" stroke-width="0.7" stroke-dasharray="1.6 1.6"/>
<circle cx="211.589" cy="75.9648" r="1.96095" transform="rotate(-150 211.589 75.9648)" fill="white"/>
</g>
<defs>
<filter id="filter0_b_1642_7847" x="236" y="-3" width="90.585" height="90.585" filterUnits="userSpaceOnUse" color-interpolation-filters="sRGB">
<feFlood flood-opacity="0" result="BackgroundImageFix"/>
<feGaussianBlur in="BackgroundImageFix" stdDeviation="10"/>
<feComposite in2="SourceAlpha" operator="in" result="effect1_backgroundBlur_1642_7847"/>
<feBlend mode="normal" in="SourceGraphic" in2="effect1_backgroundBlur_1642_7847" result="shape"/>
</filter>
<filter id="filter1_b_1642_7847" x="206.162" y="70.5374" width="10.8544" height="10.8539" filterUnits="userSpaceOnUse" color-interpolation-filters="sRGB">
<feFlood flood-opacity="0" result="BackgroundImageFix"/>
<feGaussianBlur in="BackgroundImageFix" stdDeviation="0.713235"/>
<feComposite in2="SourceAlpha" operator="in" result="effect1_backgroundBlur_1642_7847"/>
<feBlend mode="normal" in="SourceGraphic" in2="effect1_backgroundBlur_1642_7847" result="shape"/>
</filter>
<linearGradient id="paint0_linear_1642_7847" x1="186.499" y1="-21.3018" x2="186.499" y2="205.698" gradientUnits="userSpaceOnUse">
<stop stop-color="white" stop-opacity="0"/>
<stop offset="1" stop-color="#B2C7D7"/>
</linearGradient>
<linearGradient id="paint1_linear_1642_7847" x1="241.151" y1="71.3899" x2="245.384" y2="47.0415" gradientUnits="userSpaceOnUse">
<stop stop-color="#E1E2E3"/>
<stop offset="1" stop-color="#6F8CA9"/>
</linearGradient>
<clipPath id="clip0_1642_7847">
<rect width="364" height="200" rx="12" fill="white"/>
</clipPath>
</defs>
</svg>
