<svg width="364" height="200" viewBox="0 0 364 200" fill="none" xmlns="http://www.w3.org/2000/svg">
<g clip-path="url(#clip0_1642_7928)">
<rect width="364" height="200" rx="12" fill="#F4F8FA"/>
<rect opacity="0.9" y="162" width="367" height="38" fill="#DAE6EF"/>
<path d="M73.2586 87.7841C179.256 78.1033 246.989 82.2513 273.645 86.3674C277.387 86.9453 280.027 90.1898 280.081 93.9763L280.145 98.5345C280.312 110.428 280.232 136.246 278.58 144.363C276.928 152.481 273.709 155.531 272.306 156.041C269.566 157.429 248.855 160.307 187.932 160.721C127.009 161.134 87.6556 155.199 75.5942 152.18C68.2139 150.627 68.1106 143.27 67.7092 140.884C67.3078 138.499 66.2849 131.154 64.8999 111.122C64.2783 102.131 64.875 96.3306 65.787 92.8045C66.6387 89.5115 69.8713 88.0934 73.2586 87.7841Z" fill="#546988"/>
<path d="M71.6039 87.936C178.551 78.0602 246.85 82.2299 273.645 86.3674C277.387 86.9453 280.027 90.1898 280.081 93.9763L280.145 98.5345C280.312 110.428 280.232 136.246 278.58 144.363C276.928 152.481 273.709 155.531 272.306 156.041C269.566 157.429 248.855 160.307 187.932 160.721C127.009 161.134 87.6556 155.199 75.5942 152.18C68.2139 150.627 68.1106 143.27 67.7092 140.884C67.3078 138.499 66.2849 131.154 64.8999 111.122C64.1742 100.624 65.1091 94.4765 66.2677 91.2194C67.0423 89.0417 69.3022 88.1486 71.6039 87.936Z" fill="#354668"/>
<path d="M65.2431 95.7738C65.2431 95.7738 65.5451 93.5336 66.2577 91.3044C66.9539 89.1266 69.0816 87.964 71.3607 87.7814C78.137 87.2386 90.9742 86.2001 90.9742 86.2001C90.9742 86.2001 131.592 83.0277 162.051 82.0573C199.754 80.8561 236.264 82.9084 236.264 82.9084C236.264 82.9084 249.906 83.3791 258.557 84.5489C270.333 85.7096 274.824 85.8954 277.821 88.2113C280.817 90.5272 280.109 96.7243 280.109 96.7243L280.109 97.043L64.8952 97.6925L65.2431 95.7738Z" fill="#546988"/>
<g opacity="0.6">
<path d="M219.717 82.2188L241.052 83.1234L241.309 97.157L219.974 97.4565L219.717 82.2188Z" fill="#6F8CA9"/>
<path d="M220.355 97.0633L220.111 82.6236L240.671 83.4954L240.914 96.7747L220.355 97.0633Z" stroke="#B2C7D7" stroke-opacity="0.09" stroke-width="0.77557"/>
</g>
<path d="M247.564 97.1524C247.547 95.9385 248.526 94.9453 249.74 94.9452L271.816 94.9441C272.938 94.944 273.852 95.8453 273.868 96.9672V96.9672L247.564 97.1524V97.1524Z" fill="#061238"/>
<circle opacity="0.4" cx="173.671" cy="101.5" r="2.0234" transform="rotate(-0.804151 173.671 101.5)" fill="#061238" stroke="#B2C7D7" stroke-width="0.367891"/>
<path d="M278.722 143.5C222.165 150.916 114.298 144.821 67.6377 140.815L68.2723 144.558C68.9393 148.315 71.7687 151.32 75.4786 152.211L78.4411 152.923L91.1498 155.046L108.391 157.26L124.902 158.777L142.221 159.758L169.793 160.605L199.176 160.605L230.828 159.909L247.224 159.034L262.358 157.966L270.11 156.787C272.22 156.466 274.068 155.2 275.13 153.348L277.077 149.953L278.202 146.199L278.722 143.5Z" fill="#061238"/>
<path d="M68.2773 140.627C115.818 144.948 223.43 151.652 278.022 143.333" stroke="#DAE6EF" stroke-width="1.63846" stroke-linecap="round"/>
<path d="M64.9819 97.7197L280.001 96.7422" stroke="#061238" stroke-opacity="0.51" stroke-width="0.77557"/>
<path opacity="0.7" d="M124.453 155.968L122.079 158.571C155.273 161.673 203.709 160.7 226.053 159.846L222.563 155.968C197.745 158.76 146.816 157.131 124.453 155.968Z" fill="#6F8CA9"/>
<path opacity="0.5" fill-rule="evenodd" clip-rule="evenodd" d="M195.908 112.485C196.15 112.482 196.386 112.458 196.617 112.416L196.618 112.488L226.165 112.073C226.187 112.073 226.208 112.073 226.23 112.073C226.251 112.073 226.273 112.072 226.294 112.072L226.414 112.07L226.414 112.067C228.663 111.939 230.433 110.058 230.401 107.783C230.369 105.509 228.548 103.678 226.295 103.614L226.295 103.609L196.499 104.028L196.5 104.074C196.268 104.038 196.031 104.021 195.789 104.025C193.453 104.057 191.585 105.978 191.618 108.314C191.651 110.651 193.571 112.518 195.908 112.485Z" fill="#6F8CA9"/>
<path opacity="0.7" fill-rule="evenodd" clip-rule="evenodd" d="M225.44 104.358L203.656 104.664C203.637 104.664 203.617 104.664 203.597 104.664C203.577 104.664 203.557 104.665 203.538 104.665L203.499 104.666L203.499 104.667C201.662 104.745 200.21 106.271 200.236 108.121C200.262 109.971 201.756 111.456 203.594 111.482L203.597 111.655L225.668 111.345L225.666 111.172C227.502 111.095 228.954 109.568 228.929 107.718C228.903 105.869 227.408 104.384 225.57 104.357L225.57 104.356L225.504 104.357C225.493 104.357 225.482 104.357 225.472 104.357C225.461 104.358 225.45 104.358 225.44 104.358Z" fill="#061238"/>
<g opacity="0.4">
<rect x="206.074" y="104.629" width="1.83945" height="6.98993" transform="rotate(-0.804151 206.074 104.629)" fill="#546988"/>
<rect x="211.224" y="104.557" width="1.83945" height="6.98993" transform="rotate(-0.804151 211.224 104.557)" fill="#546988"/>
<rect x="216.374" y="104.485" width="1.83945" height="6.98993" transform="rotate(-0.804151 216.374 104.485)" fill="#546988"/>
<rect x="221.524" y="104.413" width="1.83945" height="6.98993" transform="rotate(-0.804151 221.524 104.413)" fill="#546988"/>
</g>
<path opacity="0.8" d="M194.764 123.66C193.145 123.683 191.987 122.518 191.965 120.907C191.942 119.297 193.067 118.099 194.685 118.076C196.304 118.054 197.462 119.219 197.484 120.83C197.507 122.44 196.382 123.638 194.764 123.66ZM194.752 122.819C195.836 122.803 196.529 121.952 196.513 120.843C196.497 119.726 195.782 118.903 194.697 118.918C193.605 118.933 192.92 119.777 192.936 120.893C192.952 122.002 193.659 122.834 194.752 122.819ZM199.38 123.498L198.434 123.512L198.358 118.114L202.056 118.062L202.068 118.895L199.316 118.934L199.336 120.334L202.031 120.296L202.043 121.13L199.348 121.168L199.38 123.498ZM203.925 123.435L202.978 123.448L202.902 118.05L206.601 117.998L206.612 118.832L203.861 118.87L203.88 120.27L206.575 120.233L206.587 121.066L203.892 121.104L203.925 123.435Z" fill="#B2C7D7"/>
<path d="M220.765 123.66C219.146 123.683 217.988 122.518 217.966 120.907C217.943 119.297 219.068 118.099 220.686 118.076C222.305 118.054 223.463 119.219 223.485 120.83C223.508 122.44 222.383 123.638 220.765 123.66ZM220.753 122.819C221.837 122.803 222.53 121.952 222.514 120.843C222.498 119.726 221.783 118.903 220.698 118.918C219.606 118.933 218.921 119.777 218.937 120.893C218.953 122.002 219.66 122.834 220.753 122.819ZM229.112 123.446L228.198 123.459L225.327 119.646L225.381 123.498L224.435 123.512L224.359 118.114L225.33 118.1L228.142 121.808L228.09 118.061L229.036 118.048L229.112 123.446Z" fill="#DAE6EF"/>
<g opacity="0.08" filter="url(#filter0_b_1642_7928)">
<circle cx="217.292" cy="41.2925" r="25.2925" fill="#061238"/>
</g>
<circle cx="217.545" cy="41.5454" r="21.5454" fill="white"/>
<path d="M220.288 47.7122C220.13 47.8703 219.873 47.868 219.717 47.7071L218.873 46.8328C218.721 46.6758 218.724 46.4264 218.878 46.2721L222.15 43H210.4C210.179 43 210 42.8209 210 42.6V41.4C210 41.1791 210.179 41 210.4 41H222.15L218.878 37.7279C218.724 37.5736 218.721 37.3242 218.873 37.1672L219.717 36.2929C219.873 36.132 220.13 36.1297 220.288 36.2878L225.717 41.7172C225.873 41.8734 225.873 42.1266 225.717 42.2828L220.288 47.7122Z" fill="#061238"/>
<g filter="url(#filter1_b_1642_7928)">
<ellipse cx="4" cy="4.00007" rx="4" ry="4.00007" transform="matrix(0.866025 0.5 0.5 -0.866025 211.449 106.928)" fill="white" fill-opacity="0.21"/>
</g>
<path d="M216.989 66.4995L217 106" stroke="url(#paint0_linear_1642_7928)" stroke-width="0.7" stroke-dasharray="1.6 1.6"/>
<circle cx="216.913" cy="105.464" r="1.96095" transform="rotate(-150 216.913 105.464)" fill="white"/>
<g filter="url(#filter2_d_1642_7928)">
<path d="M225.755 147.656C225.755 147.656 224.818 143.651 224.48 142.985C223.92 141.879 223.222 140.285 223.481 139.638C223.786 138.877 225.096 135.25 225.104 133.933V133.143V127.372C225.104 126.566 224.451 125.913 223.646 125.913C222.841 125.913 222.187 126.567 222.187 127.372V125.313C222.187 124.147 221.242 123.2 220.074 123.2C218.908 123.2 217.961 124.146 217.961 125.313V122.756C217.961 121.589 217.016 120.643 215.848 120.643C214.708 120.643 213.78 121.546 213.737 122.675V112.625C213.737 111.458 212.791 110.512 211.624 110.512C210.457 110.512 209.511 111.457 209.511 112.625V131.682C209.511 131.682 207.879 128.507 206.161 126.539C205.211 125.45 204.07 125.565 203.239 125.886C202.586 126.138 202.328 126.925 202.689 127.523C204.282 130.166 206.915 137.857 209.528 139.502C210.529 140.132 212.228 141.829 213.338 142.985C213.977 143.652 215.874 147.856 215.874 147.856" fill="#DAE6EF"/>
<path d="M226.222 147.141C226.218 147.133 225.215 142.971 224.782 142.037C223.997 140.342 224.118 139.893 224.118 139.893C224.134 139.851 225.779 135.577 225.79 133.933V127.372C225.79 126.19 224.828 125.227 223.645 125.227C223.373 125.227 223.113 125.278 222.873 125.372V125.315C222.873 123.771 221.617 122.515 220.074 122.515C219.553 122.515 219.065 122.658 218.647 122.907V122.757C218.647 121.213 217.391 119.957 215.848 119.957C215.327 119.957 214.84 120.097 214.423 120.343V112.625C214.423 111.081 213.167 109.825 211.623 109.825C210.08 109.825 208.824 111.081 208.824 112.625V129.091C208.22 128.111 207.462 126.986 206.678 126.087C205.725 124.994 204.416 124.696 202.991 125.245C202.495 125.436 202.11 125.836 201.937 126.343C201.761 126.855 201.821 127.414 202.1 127.877C202.58 128.675 203.193 130.025 203.842 131.455C205.415 134.919 207.196 138.845 209.162 140.082C210.643 141.014 215.832 148.97 215.865 149.006C216.12 149.287 216.554 149.307 216.835 149.052C217.115 148.797 217.136 148.363 216.881 148.082C216.743 147.931 211.532 139.952 209.893 138.92C208.276 137.902 206.437 133.848 205.093 130.887C204.398 129.356 203.798 128.034 203.276 127.168C203.207 127.053 203.192 126.914 203.236 126.787C203.26 126.716 203.325 126.587 203.486 126.525C204.369 126.185 205.074 126.337 205.644 126.989C207.285 128.871 208.885 131.964 208.9 131.996C209.045 132.278 209.364 132.423 209.672 132.349C209.981 132.274 210.197 131.999 210.197 131.682V112.625C210.197 111.838 210.838 111.198 211.624 111.198C212.411 111.198 213.051 111.838 213.051 112.625V124.479C213.051 124.858 213.358 125.166 213.737 125.166C214.116 125.166 214.424 124.858 214.424 124.479V122.696C214.455 121.929 215.08 121.329 215.848 121.329C216.617 121.329 217.275 121.97 217.275 122.756V125.314C217.275 125.693 217.582 126 217.961 126C218.34 126 218.648 125.693 218.648 125.314C218.648 124.527 219.288 123.887 220.074 123.887C220.861 123.887 221.501 124.527 221.501 125.314V127.372C221.501 127.751 221.809 128.058 222.187 128.058C222.566 128.058 222.874 127.751 222.874 127.372C222.874 126.946 223.22 126.6 223.646 126.6C224.071 126.6 224.418 126.947 224.418 127.372V133.929C224.411 135.013 223.289 138.27 222.844 139.383C222.672 139.813 222.593 140.562 223.514 142.565C223.981 143.581 225.018 147.802 225.039 147.839C225.167 148.056 225.396 148.177 225.631 148.177C225.749 148.177 225.87 148.146 225.979 148.082C226.305 147.89 226.414 147.469 226.222 147.143L226.222 147.141Z" fill="#061238"/>
<path fill-rule="evenodd" clip-rule="evenodd" d="M226.087 146.858C226.327 147.196 226.247 147.664 225.91 147.904C225.704 148.05 225.42 148.13 225.217 148.181C224.976 148.242 224.679 148.298 224.349 148.352C223.688 148.459 222.843 148.563 221.939 148.662C221.032 148.761 220.054 148.856 219.121 148.947C219.06 148.953 219 148.958 218.939 148.964C218.072 149.048 217.253 149.127 216.57 149.202C216.158 149.246 215.788 148.949 215.743 148.537C215.699 148.125 215.996 147.755 216.408 147.71C217.1 147.635 217.927 147.555 218.792 147.472C218.853 147.466 218.915 147.46 218.977 147.454C219.91 147.363 220.88 147.269 221.776 147.171C222.674 147.073 223.487 146.972 224.108 146.871C224.42 146.821 224.67 146.772 224.853 146.726C225.01 146.687 225.066 146.662 225.067 146.663C225.067 146.664 225.066 146.664 225.064 146.665C225.4 146.445 225.853 146.528 226.087 146.858Z" fill="#061238"/>
</g>
</g>
<defs>
<filter id="filter0_b_1642_7928" x="172" y="-4" width="90.585" height="90.585" filterUnits="userSpaceOnUse" color-interpolation-filters="sRGB">
<feFlood flood-opacity="0" result="BackgroundImageFix"/>
<feGaussianBlur in="BackgroundImageFix" stdDeviation="10"/>
<feComposite in2="SourceAlpha" operator="in" result="effect1_backgroundBlur_1642_7928"/>
<feBlend mode="normal" in="SourceGraphic" in2="effect1_backgroundBlur_1642_7928" result="shape"/>
</filter>
<filter id="filter1_b_1642_7928" x="211.486" y="100.036" width="10.8544" height="10.8539" filterUnits="userSpaceOnUse" color-interpolation-filters="sRGB">
<feFlood flood-opacity="0" result="BackgroundImageFix"/>
<feGaussianBlur in="BackgroundImageFix" stdDeviation="0.713235"/>
<feComposite in2="SourceAlpha" operator="in" result="effect1_backgroundBlur_1642_7928"/>
<feBlend mode="normal" in="SourceGraphic" in2="effect1_backgroundBlur_1642_7928" result="shape"/>
</filter>
<filter id="filter2_d_1642_7928" x="189.694" y="109.825" width="39.4249" height="55.2848" filterUnits="userSpaceOnUse" color-interpolation-filters="sRGB">
<feFlood flood-opacity="0" result="BackgroundImageFix"/>
<feColorMatrix in="SourceAlpha" type="matrix" values="0 0 0 0 0 0 0 0 0 0 0 0 0 0 0 0 0 0 127 0" result="hardAlpha"/>
<feOffset dx="-4.67044" dy="8.40679"/>
<feGaussianBlur stdDeviation="3.73635"/>
<feComposite in2="hardAlpha" operator="out"/>
<feColorMatrix type="matrix" values="0 0 0 0 0.0235294 0 0 0 0 0.0705882 0 0 0 0 0.219608 0 0 0 0.1 0"/>
<feBlend mode="normal" in2="BackgroundImageFix" result="effect1_dropShadow_1642_7928"/>
<feBlend mode="normal" in="SourceGraphic" in2="effect1_dropShadow_1642_7928" result="shape"/>
</filter>
<linearGradient id="paint0_linear_1642_7928" x1="204.079" y1="87.3315" x2="210.871" y2="48.2657" gradientUnits="userSpaceOnUse">
<stop stop-color="white"/>
<stop offset="1" stop-color="#6F8CA9" stop-opacity="0.21"/>
</linearGradient>
<clipPath id="clip0_1642_7928">
<rect width="364" height="200" rx="12" fill="white"/>
</clipPath>
</defs>
</svg>
